<svg xmlns="http://www.w3.org/2000/svg" viewBox="0 0 980 980" fill="none" shape-rendering="auto" aria-hidden="true"><!-- Generated by DiceBear (https://www.dicebear.com) --><metadata xmlns:rdf="http://www.w3.org/1999/02/22-rdf-syntax-ns#" xmlns:xsi="http://www.w3.org/2001/XMLSchema-instance" xmlns:dc="http://purl.org/dc/elements/1.1/" xmlns:dcterms="http://purl.org/dc/terms/"><rdf:RDF><rdf:Description><dc:title>Lorelei</dc:title><dc:creator>Lisa Wischofsky</dc:creator><dc:source xsi:type="dcterms:URI">https://www.figma.com/community/file/1198749693280469639</dc:source><dcterms:license xsi:type="dcterms:URI">https://creativecommons.org/publicdomain/zero/1.0/</dcterms:license><dc:rights>Remix of “Lorelei” (https://www.figma.com/community/file/1198749693280469639) by “Lisa Wischofsky”, licensed under “CC0 1.0” (https://creativecommons.org/publicdomain/zero/1.0/)</dc:rights></rdf:Description></rdf:RDF></metadata><defs><g id="eyes-variant07-0d60310b"><path d="M91 15q23-1 43 11t28 34q4 6 1 12-7-5-12-13-9-13-22-22-18-11-38-10-23 4-38 19L40 57q-5-7 1-15 18-24 50-27m230 2q8 3 12 11 4 13-1 25-2 5-7 5-5-2-5-9 2-10-1-19-4-4-10-4-14 1-24 8-18 10-28 28-1 4-5 5-2-4 0-10 8-20 26-32 11-7 21-9 11-3 22 1" fill="#000000"/><path d="M289 42q9 2 11 12 3 13-3 24 15-3 29-10c-4 9-15 14-24 18q-15 7-31 8-8 1-13-4 4-6 11-6-3-9-2-19 1-9 7-16 6-6 15-7M129 52q6-2 11 4 5 5 7 13 2 10 0 22h13q4 1 3 4-2 4-7 4-16 5-33 4-26 0-50-10-8-2-14-8l11 3q19 4 38 5-5-16 1-28 7-12 20-13" fill="#000000"/></g><g id="eyebrows-variant02-0d60310b"><path d="M144 28q12 0 23 6 7 5 10 13l-2 3-6-3q-14-7-32-6-14 0-27 5l-24 9-19 8-40 10q-10 5-17 13L0 94q2-12 10-22l13-13q12-9 26-11 15-2 29-8l19-6 23-5q12-2 24-1m166 14 22 3v3q-10 9-24 10c-11 2-25-1-36 4q-3 0-5 3-13 16-21 33c-2-7 3-15 5-22l10-18q7-16 23-17 14-1 26 1" fill="#000000"/></g><g id="nose-variant06-0d60310b"><path d="M54 97q0 13-10 23-5 5-14 6-9-1-19-5-6-2-11-6l5-4c9-1 17 3 25 4q6-1 9-6 7-8 15-12" fill="#000000"/></g><g id="mouth-sad06-0d60310b"><path d="M78 31h30l22 4q22 7 43 7l26 1q13 1 24 6 5 2 5 9l-7-2q-16-5-33-3 1 9-2 17h15l5 3q0 4-4 4h-23l-86-1-3 2-3-2-32-2q-7 1-13-3l18-1h25q-2-14 2-29-14 0-28 4-12 4-21 14l-7 11-2-1q-1-8 2-14 5-8 11-12 16-10 36-12m14 10q6 14 3 29h41q-2-12-1-22l-21-5q-10-2-22-2m52 9q1 9-2 20h39l-1-17q-18 1-36-3" fill="#000000"/></g><g id="head-variant01-0d60310b"><path d="M331 12q63 11 114 48 42 32 65 81 20 43 18 90 0 23-7 44l-2 1 1-21q2-45-13-87-17-46-51-79c-41-40-98-63-155-64a243 243 0 0 0-196 95 207 207 0 0 0-41 139l3 24c8 0 19 1 25 8l-4 2q-8 2-16 1-19 2-33 14a64 64 0 0 0-18 39c-4 32 13 65 40 83q25 17 55 8 6-3 14-2 3 2 5 7 8 19 21 37a251 251 0 0 0 68 63q14 11 29 17 28 12 57 20l32 8 13 3-4 1q-37 2-72-10-18-4-34-12a306 306 0 0 1-85-63l3 28q2 26-6 52-6 19-20 33-14 16-33 27-15 10-32 18-7 4-16 4l9-8 30-21 23-16q11-10 18-23 10-15 13-33 3-22 3-43v-28c-10-13-23-29-27-45-17 8-38 6-55-1q-27-11-43-34-18-24-22-55-2-32 16-56 14-17 35-21-6-22-6-44 0-38 13-74 22-58 70-99a249 249 0 0 1 198-56" fill="#000000"/><path d="M456 89q35 34 51 79 15 42 13 87l-1 21-5 15q-2 6-2 13l2 56-1 62-3 48q-3 24-15 44-15 29-43 45-20 11-41 16l-39 10-16 3q0 3 2 3 13 6 27 4-6 11-2 21 6 11 17 15 17 7 36 8 12 10 16 25 3 12-2 23-8 15-24 23-20 11-42 18-60 14-121 12-52-1-101-13-25-6-48-17-18-8-32-23-8-9-10-22 17-8 32-18 19-11 33-27 14-14 20-33 8-26 6-52l-3-28q12 13 23 22 28 24 62 41 16 8 34 12 35 12 72 10l4-1-13-3-32-8q-29-8-57-20-15-6-29-17-18-11-34-26a251 251 0 0 1-55-74q-2-5-5-7-8-1-14 2-30 9-55-8a88 88 0 0 1-40-83q3-23 18-39 14-12 33-14 8 1 16-1l4-2c-6-7-17-8-25-8l-3-24 2-46q8-52 39-93 35-47 87-72 52-24 109-23c57 1 114 24 155 64" fill="#ffffff"/><path d="M514 291q4 1 4 6 4 16 5 34l1 21q3 33 2 65 0 32-5 65-6 27-22 50-22 33-58 49-24 9-48 13v15l5 6q17 8 36 10 18 4 36 12-5 3-11 4-12 1-23-2-19-1-36-8-12-4-17-15-3-10 2-21-14 2-27-4-2 0-2-3l16-3 39-10q21-5 41-16 28-16 43-45 12-20 15-44l3-48 1-62-2-56q0-7 2-13M56 318q13-1 23 6 8 7 12 16 1 4-3 7l-12 9c-7 6-7 19 0 24q10 8 21 11 4 1 6 4l-5 3q-16 0-28-9-7-5-10-13-3-13 5-24 7-8 17-12-4-9-13-13l-23-5z" fill="#000000"/><use transform="translate(159 232)" href="#eyes-variant07-0d60310b"/><use transform="translate(164 126)" href="#eyebrows-variant02-0d60310b"/><use transform="translate(359 274)" href="#nose-variant06-0d60310b"/><use transform="translate(223 402)" href="#mouth-sad06-0d60310b"/></g><g id="hair-variant01-0d60310b"><use transform="translate(131 168)" href="#head-variant01-0d60310b"/><path d="M407 157a404 404 0 0 1 85 9l31 9 35 13 29 13 16 7 28 6q8 2 12 10 2 9 0 18 5 1 9 5 9 7 5 19-3 6-10 9a99 99 0 0 1-69 8l-43-11-62-17q-31-8-63-12a239 239 0 0 0-100 15l-5 14q-6 24-7 49v17q1 3-2 8-5 11-13 20-18 27-31 57-2 6-2 14v39q1 7-1 13l-46-10-7-3-8-8q-5-6-7-14-10-34-8-68 1-42 10-83 5-21 16-41 15-30 40-52 25-24 57-35a298 298 0 0 1 111-18M222 489q15 0 30 5 7 1 12 5 3 6-2 8-12 3-23-3-11-2-21-7-3-2-3-6 4-3 7-2m437 116q2 4-1 6z" fill="#000000"/></g><g id="hairAccessories-flowers-0d60310b"><path d="M185 7c8-2 18 4 19 12q3 8-1 17-5 11-18 9c-9 0-16-9-15-18q-1-5 3-11 4-7 12-9" fill="#000000"/><path d="M186 16q10-1 13 9c2 8-6 15-14 14q-11-5-7-17 3-4 8-6" fill="white"/><path d="M130 3q7-4 14-2 6 2 9 8 5 11 3 22 12 3 17 14c3 9 1 21-6 27q-9 7-20 4l-3 11q-5 8-15 10-12 0-22-7-7-6-8-15l-7-2v14q9 3 14 12 5 8 3 17a31 31 0 0 1-24 23q0 8-3 12-6 7-14 9-11 3-20-2-8-5-12-14H21q-11-2-18-11-8-18 7-32-3-9-1-19 4-9 10-14 7-6 16-5l11 3q7-8 17-11-6-3-11-10-5-11 1-23 5-8 15-9 7-3 13-1 7 2 10 8 12-15 30-10 4-5 9-7M85 50l-9 6 8 4z" fill="#000000"/><path d="M64 20q4-3 10-1 10 3 11 15-1 9-9 14c-9 5-22-2-22-13q1-10 10-15m72-11q9 0 13 8 4 11 0 22 9 3 13 12 2 9-4 16-7 6-17 4-3 11-14 16-8 3-15-4-6-6-7-16-6 0-11-4-6-8-1-17l7-6q-3-7-4-15 2-8 9-10 9-1 16 5 5-10 15-11M84 71q3 12-3 23 8 1 13 4 7 6 8 15 0 8-6 13-9 5-19 6 3 7-1 13c-4 7-14 9-21 5q-10-5-12-16-10 3-20 2-6-2-11-7-5-9 1-18l9-7q-7-12-4-25 4-8 12-8 10 1 18 7 4-12 15-16c8-3 18 0 21 9" fill="white"/></g><clipPath id="clip-0d60310b"><rect width="980" height="980" rx="0" ry="0"/></clipPath></defs><g clip-path="url(#clip-0d60310b)"><rect width="980" height="980" fill="#b6e3f4"/><use transform="translate(76 3)" href="#hair-variant01-0d60310b"/><use transform="translate(183 329)" href="#hairAccessories-flowers-0d60310b"/></g></svg>