<svg xmlns="http://www.w3.org/2000/svg" viewBox="0 0 980 980" fill="none" shape-rendering="auto" aria-hidden="true"><!-- Generated by DiceBear (https://www.dicebear.com) --><metadata xmlns:rdf="http://www.w3.org/1999/02/22-rdf-syntax-ns#" xmlns:xsi="http://www.w3.org/2001/XMLSchema-instance" xmlns:dc="http://purl.org/dc/elements/1.1/" xmlns:dcterms="http://purl.org/dc/terms/"><rdf:RDF><rdf:Description><dc:title>Lorelei</dc:title><dc:creator>Lisa Wischofsky</dc:creator><dc:source xsi:type="dcterms:URI">https://www.figma.com/community/file/1198749693280469639</dc:source><dcterms:license xsi:type="dcterms:URI">https://creativecommons.org/publicdomain/zero/1.0/</dcterms:license><dc:rights>Remix of “Lorelei” (https://www.figma.com/community/file/1198749693280469639) by “Lisa Wischofsky”, licensed under “CC0 1.0” (https://creativecommons.org/publicdomain/zero/1.0/)</dc:rights></rdf:Description></rdf:RDF></metadata><defs><g id="eyes-variant21-116275ee"><path d="M327 4q12 10 13 25 1 9-2 16c-3 5-10 5-13 0q-2-7-2-15-2-7-8-13-5-2-11 0c10 13 9 30 5 45q-3 9-10 16l-11 8q-8 3-14-2-7-7-7-18-2 8-6 13l-4-6q-1-10 2-21 6-20 21-35 10-11 25-16 12-3 22 3M123 9q29 12 41 41 5 10 4 22 0 4-3 4l-7-9q-7-13-16-25-12-15-30-19 9 15 9 34-2 16-12 30-8 10-20 10-9 0-16-5-13-11-14-28-2-12 1-22-2 5-6 8-7 6-13-1-4-5 0-12Q57 15 83 7q20-4 40 2" fill="#000000"/></g><g id="eyebrows-variant08-116275ee"><path d="M132 29q9-2 19 1 11 4 18 13 4 11 1 23-2 6-8 8-13 3-27-1-11-2-22-7-9-3-13-14-1-9 7-16 11-6 25-7m165 1q8 2 12 9 1 6-1 12l-7 10q-9 5-18 7-10 3-18 2l-8-7c-3-12 3-26 14-31q12-5 26-2" fill="#000000"/></g><g id="nose-variant02-116275ee"><path d="M48 108v1q-6 13-20 18-5 2-9-1v-4q10-8 24-12z" fill="#000000"/></g><g id="mouth-happy06-116275ee"><path d="M128 40q40-2 78 6l8 4q3 1 2 3-6 3-14 2l-5 5q-10 10-22 16-11 4-22 5-24 1-48-3a147 147 0 0 1-68-28l-12-4q-3-2-2-5h8q24 3 49 2zm42 11q-35-2-69 1l-43 1 23 10q20 7 41 8 15 2 32 1 11-1 21-6 9-5 17-13z" fill="#000000"/></g><g id="glasses-variant03-116275ee"><path d="M102 35h35q26 3 53 10l31 9q11 3 22 3l15-2q6-1 11-5 15-7 30-9 20-4 41-3l29 2c8 1 15 6 24 7q3 0 7 4 1 4-3 7l-12 1q2 29-12 55-8 17-24 28-16 9-33 9-19 1-34-7-14-7-22-21-7-16-5-34 0-11 3-23-14 3-28 1l-13-1v21q-7 28-25 48-9 10-21 16-19 10-39 14a94 94 0 0 1-75-16q-15-11-25-26-10-17-11-37-1-12 3-22l-11 5q-2 1-4-1t1-5q11-8 24-13 14-6 29-9zm11 16H74l-13 1-24 6-2 19a66 66 0 0 0 32 62q10 7 22 10 12 5 25 5a94 94 0 0 0 53-15q21-13 28-37 6-19 4-38l-11-2q-38-7-75-11m215 2c-19-1-38 6-56 11q-3 10-3 19-2 15 2 29 5 14 18 20 12 6 25 5 16 1 30-9 14-13 19-32 5-18 4-38c-13 0-26-5-39-5" fill="#000000"/></g><g id="head-variant02-116275ee"><path d="M290 4c57-1 115 19 159 56q39 34 59 81c14 34 20 73 14 109q-1 8-4 12l-2-2 1-33A215 215 0 0 0 345 21 235 235 0 0 0 75 174q-18 57-6 115l17-1q4 0 6 3 1 3-2 4l-11 3q-21 5-37 19a63 63 0 0 0-22 45q-1 18 8 35 12 20 32 31 30 16 63 6h6q3 2 4 6l15 29q10 15 21 27 23 23 51 36 43 21 90 27 6 1 10 4 1 3-2 4l-11 1a231 231 0 0 1-147-62q8 26 8 54 0 17-7 33-6 15-18 27a196 196 0 0 1-61 43l3-3 17-14q19-17 35-38a93 93 0 0 0 16-65l-3-39-2-10q-7-8-12-17-9-15-14-31-11 3-22 3c-28 1-56-12-74-34a81 81 0 0 1-18-51q0-18 8-34 14-25 39-36-11-47-2-93 12-61 51-108C149 38 219 6 290 4" fill="#000000"/><path d="M345 21a214 214 0 0 1 172 206l-1 33v15q-3 2-3 5-3 27 1 55 7 43 2 88-4 43-30 79-26 31-63 43-21 7-44 12l-33 9q3 2 7 2l36-2q-7 11-10 26-1 15 10 26 10 10 24 14 8 3 17 3 11 13 14 30 3 18-8 34-15 20-37 30-27 13-58 18a352 352 0 0 1-191-24c-18-9-38-23-48-41q-7-11-7-25 28-14 48-37 12-12 18-27 7-16 7-33 0-28-8-54l19 16a235 235 0 0 0 128 46l11-1q2-1 2-4-4-3-10-4-47-6-90-27-28-13-51-36-11-12-21-27l-15-29q-1-4-4-6h-6a82 82 0 0 1-95-37q-8-17-8-35 2-28 22-45 16-14 37-19l11-3q3-1 2-4-2-3-6-3l-17 1q-12-58 6-115 21-59 69-101a236 236 0 0 1 201-52" fill="#ffffff"/><path d="m516 275 3 3 1 13 3 45q5 30 5 60 0 23-5 47-10 43-40 76-15 15-33 25-26 16-55 21c-1 8-5 16-4 25q0 8 5 14 13 13 28 20l18 9-12 2q-9 0-17-3-14-4-24-14-11-11-10-26 3-15 10-26-18 3-36 2-4 0-7-2l33-9q23-4 44-12 38-13 63-43 26-36 30-79 5-45-2-88-4-27-1-55 0-3 3-5M66 334q8 0 15 7 3 5 1 10l-11 22q-1 5 3 9l23 10-1 2H85q-9-1-17-6-9-6-7-17l11-23c-6-4-13-2-19-8q5-6 13-6" fill="#000000"/><use transform="translate(159 232)" href="#eyes-variant21-116275ee"/><use transform="translate(164 126)" href="#eyebrows-variant08-116275ee"/><use transform="translate(359 274)" href="#nose-variant02-116275ee"/><use transform="translate(223 402)" href="#mouth-happy06-116275ee"/><use transform="translate(152 197)" href="#glasses-variant03-116275ee"/></g><g id="hair-variant24-116275ee"><path d="m432 70 13 2q5 4 2 9l-6 5q-5 3-9 9a98 98 0 0 1 62 1q22 7 40 21l31 21q22 12 46 17l40 7q29 5 54 18 24 9 40 29 11 16 5 33c-4 12-15 19-22 30q-5 5-5 13 2 8 9 11 16 11 33 20 12 8 21 18 8 12 8 26l-5 18q-7 10-16 17-12 10-21 22-12 13-8 29 2 10 10 14l21 10c24 15 39 43 38 71q0 29-20 50a62 62 0 0 1-47 18q-6-1-11 1-10 5-9 17c2 14 8 26 10 40q4 17-1 33-3 12-13 21-11 10-26 10c-11 1-21-5-32-7a58 58 0 0 0-51 14q2 14 12 21 6 2 10 1 3 1 3 5-1 7-6 13a104 104 0 0 1-54 31h-43l-75-8-37 5-16 4-30 3q-25 3-52-2-25-4-51-13-12-5-23-14-11-12-11-28 1-13 4-24 1-8-2-14-7-7-17-9-11-2-23-8-9-7-9-19 1-19 10-34l20-32q3-5 4-11 5-20 6-40l-28-17-14-15a72 72 0 0 1-15-44q1-13-1-22-5-11-13-19l-15-20q-8-16-13-34-11-39 1-78 10-32 34-55l34-28q8-6 11-14l15-30q15-20 38-28 11-4 23-3 11 2 21 8a150 150 0 0 1 80-87q20-9 41-9" fill="#000000"/><use transform="translate(131 168)" href="#head-variant02-116275ee"/><path d="M441 71q6 1 7 7-1 5-6 7l-10 10a99 99 0 0 1 61 1q23 7 41 21l32 21q12 8 26 12 27 8 56 12a226 226 0 0 1 81 32q13 8 20 21 6 16-1 31c-4 9-14 17-20 26q-5 5-5 13 1 6 8 10c14 11 33 18 47 30q15 14 16 34-1 12-8 23l-19 18q-12 12-20 25-7 11-2 24 7 10 19 16l15 7q1 6-2 10-9 10-20 14-26 7-50-1-19-4-34-16-13-9-21-25-13-25-13-54l-1-33-1-6q-8-8-21-11-17-2-32-8-11-5-17-14l-7-20-5-17q-4-7-10-12-7-2-14 0-12 4-23 4-23 2-44-10-12-7-18-21l-6-22q-8 12-20 23 6 26-7 50-12 19-29 34l-30 22c-19 12-36 23-50 41q-11 14-14 31 1 7 7 13 5 12 4 26c-2 10-11 20-15 30q-6 13-3 28 3 12 15 18l12 6 11-1q5 2 4 6l-6 7q-7 6-16 7-15 5-30 5-12 0-24-5-15-5-27-13-12-6-22-14-13-14-20-32-4-14-4-28 1-9-1-17-5-11-13-19l-14-19a153 153 0 0 1-15-108 129 129 0 0 1 42-65l28-23q8-7 12-15l14-29q15-21 39-29 11-3 21-2 13 2 22 8a149 149 0 0 1 74-85l19-7q19-5 37-3" fill="#000000"/></g><clipPath id="clip-116275ee"><rect width="980" height="980" rx="0" ry="0"/></clipPath></defs><g clip-path="url(#clip-116275ee)"><rect width="980" height="980" fill="#d1d4f9"/><use transform="translate(76 3)" href="#hair-variant24-116275ee"/></g></svg>